<?xml version="1.0" encoding="UTF-8"?>
<svg xmlns="http://www.w3.org/2000/svg" width="1024" height="1024" viewBox="0 0 1024 1024" role="img" aria-label="Wardrobe app icon (vector)">
  <defs>
    <radialGradient id="bgGlow" cx="50%" cy="45%" r="62%">
      <stop offset="0%" stop-color="#223764"/>
      <stop offset="70%" stop-color="#1A2C52"/>
      <stop offset="100%" stop-color="#172746"/>
    </radialGradient>

    <linearGradient id="doorTone" x1="0" y1="0" x2="0" y2="1">
      <stop offset="0%" stop-color="#FEF5E5"/>
      <stop offset="100%" stop-color="#FDF1DE"/>
    </linearGradient>

    <filter id="softShadow" x="-20%" y="-20%" width="140%" height="140%" color-interpolation-filters="sRGB">
      <feDropShadow dx="0" dy="6" stdDeviation="6" flood-color="#0f1e38" flood-opacity="0.22"/>
    </filter>
  </defs>

  <rect x="0" y="0" width="1024" height="1024" fill="url(#bgGlow)"/>

  <g filter="url(#softShadow)">
    <path d="M500 200 A312 312 0 0 0 200 512 A312 312 0 0 0 500 824 Z" fill="url(#doorTone)"/>
    <path d="M524 200 A312 312 0 0 1 824 512 A312 312 0 0 1 524 824 Z" fill="url(#doorTone)"/>

    <rect x="500" y="200" width="24" height="624" rx="4" fill="#1C2B4B"/>

    <g fill="#1C2B4B">
      <rect x="437" y="454" width="51" height="117" rx="25.5"/>
      <rect x="535" y="454" width="51" height="117" rx="25.5"/>
    </g>

    <g fill="#FDF2E0">
      <rect x="450" y="466" width="24" height="91" rx="12"/>
      <rect x="548" y="466" width="24" height="91" rx="12"/>
    </g>
  </g>
</svg>
